<svg xmlns="http://www.w3.org/2000/svg" height="601pt" version="1.1" viewBox="-91 1 601 601.8" width="601pt">
<g id="surface1">
<path d="M 0.429688 61.21875 L 347.347656 61.21875 L 347.347656 510.167969 L 0.429688 510.167969 Z M 0.429688 61.21875 " style=" stroke:none;fill-rule:nonzero;fill:rgb(26.27451%,59.607843%,81.960784%);fill-opacity:1;" />
<path d="M 286.125 61.21875 L 41.242188 510.167969 L 347.347656 510.167969 L 347.347656 61.21875 Z M 286.125 61.21875 " style=" stroke:none;fill-rule:nonzero;fill:rgb(24.313725%,54.901961%,78.039216%);fill-opacity:1;" />
<path d="M 0.429688 550.984375 C 0.429688 573.523438 18.703125 591.796875 41.242188 591.796875 L 306.53125 591.796875 C 329.070312 591.796875 347.347656 573.523438 347.347656 550.984375 L 347.347656 510.167969 L 0.429688 510.167969 Z M 0.429688 550.984375 " style=" stroke:none;fill-rule:nonzero;fill:rgb(85.490196%,86.666667%,87.45098%);fill-opacity:1;" />
<path d="M 347.347656 40.8125 C 347.347656 18.273438 329.070312 0 306.53125 0 L 41.242188 0 C 18.703125 0 0.429688 18.273438 0.429688 40.8125 L 0.429688 61.21875 L 347.347656 61.21875 Z M 347.347656 40.8125 " style=" stroke:none;fill-rule:nonzero;fill:rgb(85.490196%,86.666667%,87.45098%);fill-opacity:1;" />
<path d="M 163.683594 540.78125 L 184.089844 540.78125 L 184.089844 561.1875 L 163.683594 561.1875 Z M 163.683594 540.78125 " style=" stroke:none;fill-rule:nonzero;fill:rgb(74.117647%,74.117647%,74.117647%);fill-opacity:1;" />
<path d="M 265.71875 163.253906 L 265.71875 124.675781 L 173.886719 101.71875 L 82.058594 124.675781 L 82.058594 163.253906 L 102.464844 163.253906 L 102.464844 214.269531 L 82.058594 214.269531 L 82.058594 234.679688 L 265.71875 234.679688 L 265.71875 214.269531 L 245.3125 214.269531 L 245.3125 163.253906 Z M 184.089844 163.253906 L 184.089844 214.269531 L 163.683594 214.269531 L 163.683594 163.253906 Z M 122.871094 163.253906 L 143.277344 163.253906 L 143.277344 214.269531 L 122.871094 214.269531 Z M 224.90625 214.269531 L 204.5 214.269531 L 204.5 163.253906 L 224.90625 163.253906 Z M 224.90625 214.269531 " style=" stroke:none;fill-rule:nonzero;fill:rgb(36.862745%,70.196078%,81.960784%);fill-opacity:1;" />
<path d="M 51.449219 479.558594 L 51.449219 285.695312 C 51.449219 274.421875 60.578125 265.289062 71.855469 265.289062 L 275.921875 265.289062 C 287.195312 265.289062 296.328125 274.421875 296.328125 285.695312 L 296.328125 479.558594 " style=" stroke:none;fill-rule:nonzero;fill:rgb(52.941176%,80.784314%,85.098039%);fill-opacity:1;" />
<path d="M 51.449219 336.710938 L 296.328125 336.710938 L 296.328125 357.117188 L 51.449219 357.117188 Z M 51.449219 336.710938 " style=" stroke:none;fill-rule:nonzero;fill:rgb(36.862745%,70.196078%,81.960784%);fill-opacity:1;" />
<path d="M 51.449219 418.339844 L 296.328125 418.339844 L 296.328125 438.746094 L 51.449219 438.746094 Z M 51.449219 418.339844 " style=" stroke:none;fill-rule:nonzero;fill:rgb(36.862745%,70.196078%,81.960784%);fill-opacity:1;" />
<path d="M 82.058594 295.898438 L 102.464844 295.898438 L 102.464844 316.304688 L 82.058594 316.304688 Z M 82.058594 295.898438 " style=" stroke:none;fill-rule:nonzero;fill:rgb(36.862745%,70.196078%,81.960784%);fill-opacity:1;" />
<path d="M 82.058594 377.527344 L 102.464844 377.527344 L 102.464844 397.933594 L 82.058594 397.933594 Z M 82.058594 377.527344 " style=" stroke:none;fill-rule:nonzero;fill:rgb(36.862745%,70.196078%,81.960784%);fill-opacity:1;" />
<path d="M 82.058594 459.152344 L 102.464844 459.152344 L 102.464844 479.558594 L 82.058594 479.558594 Z M 82.058594 459.152344 " style=" stroke:none;fill-rule:nonzero;fill:rgb(36.862745%,70.196078%,81.960784%);fill-opacity:1;" />
<path d="M 122.871094 295.898438 L 265.71875 295.898438 L 265.71875 316.304688 L 122.871094 316.304688 Z M 122.871094 295.898438 " style=" stroke:none;fill-rule:nonzero;fill:rgb(36.862745%,70.196078%,81.960784%);fill-opacity:1;" />
<path d="M 122.871094 377.527344 L 224.90625 377.527344 L 224.90625 397.933594 L 122.871094 397.933594 Z M 122.871094 377.527344 " style=" stroke:none;fill-rule:nonzero;fill:rgb(36.862745%,70.196078%,81.960784%);fill-opacity:1;" />
<path d="M 122.871094 459.152344 L 255.515625 459.152344 L 255.515625 479.558594 L 122.871094 479.558594 Z M 122.871094 459.152344 " style=" stroke:none;fill-rule:nonzero;fill:rgb(36.862745%,70.196078%,81.960784%);fill-opacity:1;" />
<path d="M 31.039062 91.832031 L 51.449219 91.832031 L 51.449219 112.238281 L 31.039062 112.238281 Z M 31.039062 91.832031 " style=" stroke:none;fill-rule:nonzero;fill:rgb(36.862745%,70.196078%,81.960784%);fill-opacity:1;" />
<path d="M 393.527344 331.203125 L 347.347656 275.492188 L 347.347656 408.136719 L 260.617188 321.40625 C 246.300781 307.550781 223.457031 307.917969 209.601562 322.234375 C 196.058594 336.222656 196.058594 358.433594 209.601562 372.421875 L 296.328125 459.152344 L 287.929688 473.855469 C 268.359375 508.085938 271.699219 550.800781 296.328125 581.59375 L 296.328125 602 L 418.769531 602 L 418.769531 398.382812 C 418.769531 373.667969 409.800781 349.804688 393.527344 331.203125 Z M 393.527344 331.203125 " style=" stroke:none;fill-rule:nonzero;fill:rgb(100%,71.764706%,50.980392%);fill-opacity:1;" />
<path d="M 377.957031 448.949219 C 375.253906 448.949219 372.648438 447.878906 370.742188 445.960938 L 340.132812 415.347656 C 336.214844 411.296875 336.324219 404.839844 340.378906 400.921875 C 344.335938 397.105469 350.601562 397.105469 354.558594 400.921875 L 385.171875 431.53125 C 389.148438 435.519531 389.148438 441.980469 385.171875 445.960938 C 383.25 447.878906 380.660156 448.949219 377.957031 448.949219 Z M 377.957031 448.949219 " style=" stroke:none;fill-rule:nonzero;fill:rgb(94.901961%,64.313725%,43.529412%);fill-opacity:1;" />
</g>
</svg>