<svg xmlns="http://www.w3.org/2000/svg" height="591pt" version="1.1" viewBox="-96 1 591 591.60003" width="591pt">
<g id="surface1">
<path d="M 41.191406 0 L 265.746094 0 C 288.292969 0 306.574219 18.28125 306.574219 40.828125 L 306.574219 449.101562 C 306.574219 471.652344 288.292969 489.929688 265.746094 489.929688 L 41.191406 489.929688 C 18.644531 489.929688 0.367188 471.652344 0.367188 449.101562 L 0.367188 40.828125 C 0.367188 18.28125 18.644531 0 41.191406 0 Z M 41.191406 0 " style=" stroke:none;fill-rule:nonzero;fill:rgb(26.27451%,59.607843%,81.960784%);fill-opacity:1;" />
<path d="M 0.367188 410.828125 L 0.367188 449.101562 C 0.367188 471.652344 18.644531 489.929688 41.191406 489.929688 L 265.746094 489.929688 C 288.292969 489.929688 306.574219 471.652344 306.574219 449.101562 L 306.574219 104.621094 Z M 0.367188 410.828125 " style=" stroke:none;fill-rule:nonzero;fill:rgb(24.313725%,54.901961%,78.039216%);fill-opacity:1;" />
<path d="M 122.847656 347.035156 C 122.847656 369.582031 104.570312 387.863281 82.019531 387.863281 C 59.472656 387.863281 41.191406 369.582031 41.191406 347.035156 C 41.191406 324.484375 59.472656 306.207031 82.019531 306.207031 C 104.570312 306.207031 122.847656 324.484375 122.847656 347.035156 Z M 122.847656 347.035156 " style=" stroke:none;fill-rule:nonzero;fill:rgb(87.058824%,29.803922%,23.529412%);fill-opacity:1;" />
<path d="M 108.761719 377.65625 C 93.535156 391.261719 70.507812 391.261719 55.277344 377.65625 C 38.242188 392.425781 36.394531 418.207031 51.164062 435.253906 C 65.933594 452.289062 91.71875 454.125 108.761719 439.367188 C 125.796875 424.597656 127.644531 398.816406 112.875 381.769531 C 111.601562 380.300781 110.234375 378.921875 108.761719 377.65625 Z M 108.761719 377.65625 " style=" stroke:none;fill-rule:nonzero;fill:rgb(99.215686%,71.372549%,18.431373%);fill-opacity:1;" />
<path d="M 200.421875 40.828125 L 249.414062 40.828125 C 258.4375 40.828125 265.746094 48.136719 265.746094 57.160156 L 265.746094 106.152344 C 265.746094 115.175781 258.4375 122.484375 249.414062 122.484375 L 200.421875 122.484375 C 191.398438 122.484375 184.089844 115.175781 184.089844 106.152344 L 184.089844 57.160156 C 184.089844 48.136719 191.398438 40.828125 200.421875 40.828125 Z M 200.421875 40.828125 " style=" stroke:none;fill-rule:nonzero;fill:rgb(99.215686%,71.372549%,18.431373%);fill-opacity:1;" />
<path d="M 214.710938 40.828125 L 235.125 40.828125 L 235.125 71.449219 L 214.710938 71.449219 Z M 214.710938 40.828125 " style=" stroke:none;fill-rule:nonzero;fill:rgb(99.215686%,48.235294%,18.431373%);fill-opacity:1;" />
<path d="M 214.710938 91.863281 L 235.125 91.863281 L 235.125 122.484375 L 214.710938 122.484375 Z M 214.710938 91.863281 " style=" stroke:none;fill-rule:nonzero;fill:rgb(99.215686%,48.235294%,18.431373%);fill-opacity:1;" />
<path d="M 122.847656 40.828125 L 143.261719 40.828125 L 143.261719 81.65625 L 122.847656 81.65625 Z M 122.847656 40.828125 " style=" stroke:none;fill-rule:nonzero;fill:rgb(36.862745%,70.196078%,81.960784%);fill-opacity:1;" />
<path d="M 61.605469 40.828125 L 82.019531 40.828125 L 82.019531 81.65625 L 61.605469 81.65625 Z M 61.605469 40.828125 " style=" stroke:none;fill-rule:nonzero;fill:rgb(36.862745%,70.196078%,81.960784%);fill-opacity:1;" />
<path d="M 61.605469 224.550781 L 82.019531 224.550781 L 82.019531 265.378906 L 61.605469 265.378906 Z M 61.605469 224.550781 " style=" stroke:none;fill-rule:nonzero;fill:rgb(36.862745%,70.196078%,81.960784%);fill-opacity:1;" />
<path d="M 122.847656 102.070312 L 143.261719 102.070312 L 143.261719 142.898438 L 122.847656 142.898438 Z M 122.847656 102.070312 " style=" stroke:none;fill-rule:nonzero;fill:rgb(36.862745%,70.196078%,81.960784%);fill-opacity:1;" />
<path d="M 122.847656 163.308594 L 143.261719 163.308594 L 143.261719 204.136719 L 122.847656 204.136719 Z M 122.847656 163.308594 " style=" stroke:none;fill-rule:nonzero;fill:rgb(36.862745%,70.196078%,81.960784%);fill-opacity:1;" />
<path d="M 122.847656 224.550781 L 143.261719 224.550781 L 143.261719 265.378906 L 122.847656 265.378906 Z M 122.847656 224.550781 " style=" stroke:none;fill-rule:nonzero;fill:rgb(36.862745%,70.196078%,81.960784%);fill-opacity:1;" />
<path d="M 265.746094 530.757812 L 398.433594 530.757812 L 398.433594 592 L 265.746094 592 Z M 265.746094 530.757812 " style=" stroke:none;fill-rule:nonzero;fill:rgb(20.784314%,50.980392%,74.117647%);fill-opacity:1;" />
<path d="M 373.183594 290.488281 L 306.574219 214.34375 L 306.574219 347.035156 L 240.226562 280.691406 C 225.90625 266.828125 203.054688 267.195312 189.191406 281.515625 C 175.648438 295.507812 175.648438 317.730469 189.191406 331.722656 L 275.953125 418.484375 L 269.910156 430.558594 C 254.273438 461.832031 252.761719 498.300781 265.746094 530.757812 L 398.433594 530.757812 L 398.433594 357.691406 C 398.433594 332.96875 389.460938 309.097656 373.183594 290.488281 Z M 373.183594 290.488281 " style=" stroke:none;fill-rule:nonzero;fill:rgb(100%,71.764706%,50.980392%);fill-opacity:1;" />
<path d="M 337.191406 387.863281 C 334.488281 387.863281 331.886719 386.789062 329.976562 384.871094 L 299.355469 354.25 C 295.4375 350.199219 295.550781 343.738281 299.601562 339.816406 C 303.5625 336 309.828125 336 313.789062 339.816406 L 344.410156 370.4375 C 348.390625 374.429688 348.390625 380.890625 344.410156 384.871094 C 342.492188 386.789062 339.898438 387.863281 337.191406 387.863281 Z M 337.191406 387.863281 " style=" stroke:none;fill-rule:nonzero;fill:rgb(94.901961%,64.313725%,43.529412%);fill-opacity:1;" />
</g>
</svg>