<svg xmlns="http://www.w3.org/2000/svg" height="601pt" version="1.1" viewBox="-5 1 601 601.80002" width="601pt">
<g id="surface1">
<path d="M 0.402344 71.421875 L 143.25 71.421875 L 143.25 234.679688 L 0.402344 234.679688 Z M 0.402344 71.421875 " style=" stroke:none;fill-rule:nonzero;fill:rgb(26.27451%,59.607843%,81.960784%);fill-opacity:1;" />
<path d="M 386.863281 241.054688 L 316.707031 173.457031 L 275.894531 173.457031 L 205.734375 241.054688 C 166.339844 277.992188 143.769531 329.4375 143.25 383.433594 C 143.25 459.058594 211.773438 520.371094 296.300781 520.371094 C 380.824219 520.371094 449.351562 459.058594 449.351562 383.433594 C 448.832031 329.4375 426.261719 277.992188 386.863281 241.054688 Z M 386.863281 241.054688 " style=" stroke:none;fill-rule:nonzero;fill:rgb(53.333333%,70.196078%,21.568627%);fill-opacity:1;" />
<path d="M 406.300781 262.847656 C 407.773438 273.175781 408.515625 283.59375 408.539062 294.019531 C 408.539062 385.21875 325.890625 459.152344 223.976562 459.152344 C 203.03125 459.132812 182.207031 455.867188 162.246094 449.492188 C 191.746094 494.628906 242.386719 521.414062 296.300781 520.371094 C 380.824219 520.371094 449.351562 459.058594 449.351562 383.433594 C 449.023438 339.527344 433.851562 297.03125 406.300781 262.847656 Z M 406.300781 262.847656 " style=" stroke:none;fill-rule:nonzero;fill:rgb(50.196078%,65.882353%,20.392157%);fill-opacity:1;" />
<path d="M 393.230469 71.421875 L 286.097656 71.421875 L 286.097656 20.40625 L 235.078125 20.40625 L 184.0625 71.421875 L 143.25 71.421875 L 143.25 234.679688 L 367.722656 234.679688 C 379 234.679688 388.128906 225.546875 388.128906 214.269531 L 388.128906 122.441406 L 393.230469 122.441406 C 407.324219 122.441406 418.742188 111.023438 418.742188 96.933594 C 418.742188 82.839844 407.324219 71.421875 393.230469 71.421875 Z M 393.230469 71.421875 " style=" stroke:none;fill-rule:nonzero;fill:rgb(100%,71.764706%,50.980392%);fill-opacity:1;" />
<path d="M 92.230469 183.660156 L 112.640625 183.660156 L 112.640625 204.066406 L 92.230469 204.066406 Z M 92.230469 183.660156 " style=" stroke:none;fill-rule:nonzero;fill:rgb(20.784314%,50.980392%,74.117647%);fill-opacity:1;" />
<path d="M 369.183594 456.5 L 364.324219 459.152344 L 286.097656 459.152344 C 269.191406 459.152344 255.488281 472.855469 255.488281 489.761719 C 255.488281 506.667969 269.191406 520.371094 286.097656 520.371094 L 265.691406 520.371094 L 160.125 472.019531 C 145.769531 465.46875 128.820312 471.785156 122.269531 486.140625 C 122.085938 486.527344 121.925781 486.925781 121.761719 487.324219 C 116.507812 500.464844 121.566406 515.484375 133.699219 522.769531 L 251.148438 593.234375 C 260.660156 598.960938 271.546875 601.988281 282.648438 602 L 500.367188 602 L 500.367188 469.355469 C 463.421875 438.5625 411.402344 433.472656 369.183594 456.5 Z M 369.183594 456.5 " style=" stroke:none;fill-rule:nonzero;fill:rgb(100%,71.764706%,50.980392%);fill-opacity:1;" />
<path d="M 500.367188 469.355469 L 592.199219 469.355469 L 592.199219 602 L 500.367188 602 Z M 500.367188 469.355469 " style=" stroke:none;fill-rule:nonzero;fill:rgb(87.058824%,29.803922%,23.529412%);fill-opacity:1;" />
<path d="M 530.976562 550.984375 L 551.382812 550.984375 L 551.382812 571.390625 L 530.976562 571.390625 Z M 530.976562 550.984375 " style=" stroke:none;fill-rule:nonzero;fill:rgb(47.843137%,28.627451%,18.823529%);fill-opacity:1;" />
<path d="M 342.214844 71.421875 L 367.722656 10.203125 L 224.875 10.203125 L 250.382812 71.421875 Z M 342.214844 71.421875 " style=" stroke:none;fill-rule:nonzero;fill:rgb(53.333333%,70.196078%,21.568627%);fill-opacity:1;" />
<path d="M 490.164062 255.085938 C 486.675781 234.15625 470.277344 217.761719 449.351562 214.269531 C 470.277344 210.78125 486.675781 194.382812 490.164062 173.457031 C 493.652344 194.382812 510.050781 210.78125 530.976562 214.269531 C 510.050781 217.761719 493.652344 234.15625 490.164062 255.085938 Z M 490.164062 255.085938 " style=" stroke:none;fill-rule:nonzero;fill:rgb(99.215686%,71.372549%,18.431373%);fill-opacity:1;" />
<path d="M 504.367188 421.5625 L 484.980469 415.113281 C 491.042969 396.960938 491.785156 377.464844 487.144531 358.902344 L 484.765625 349.382812 L 504.558594 344.445312 L 506.9375 353.953125 C 512.539062 376.28125 511.640625 399.726562 504.367188 421.5625 Z M 504.367188 421.5625 " style=" stroke:none;fill-rule:nonzero;fill:rgb(85.490196%,86.666667%,87.45098%);fill-opacity:1;" />
<path d="M 153.453125 40.8125 L 133.046875 40.8125 C 133.046875 18.273438 151.320312 0 173.859375 0 L 173.859375 20.40625 C 162.585938 20.40625 153.453125 29.539062 153.453125 40.8125 Z M 153.453125 40.8125 " style=" stroke:none;fill-rule:nonzero;fill:rgb(85.490196%,86.666667%,87.45098%);fill-opacity:1;" />
<path d="M 306.503906 336.710938 L 286.097656 336.710938 C 280.464844 336.710938 275.894531 332.140625 275.894531 326.507812 C 275.894531 320.875 280.464844 316.304688 286.097656 316.304688 L 326.910156 316.304688 L 326.910156 295.898438 L 306.503906 295.898438 L 306.503906 275.492188 L 286.097656 275.492188 L 286.097656 295.898438 C 269.191406 295.898438 255.488281 309.601562 255.488281 326.507812 C 255.488281 343.414062 269.191406 357.117188 286.097656 357.117188 L 306.503906 357.117188 C 312.136719 357.117188 316.707031 361.691406 316.707031 367.320312 C 316.707031 372.953125 312.136719 377.527344 306.503906 377.527344 L 265.691406 377.527344 L 265.691406 397.933594 L 286.097656 397.933594 L 286.097656 418.339844 L 306.503906 418.339844 L 306.503906 397.933594 C 323.410156 397.933594 337.113281 384.230469 337.113281 367.320312 C 337.113281 350.414062 323.410156 336.710938 306.503906 336.710938 Z M 306.503906 336.710938 " style=" stroke:none;fill-rule:nonzero;fill:rgb(100%,100%,100%);fill-opacity:1;" />
<path d="M 367.722656 530.578125 L 286.097656 530.578125 C 280.464844 530.578125 275.894531 526.003906 275.894531 520.371094 C 275.894531 514.742188 280.464844 510.167969 286.097656 510.167969 L 367.722656 510.167969 C 373.355469 510.167969 377.925781 514.742188 377.925781 520.371094 C 377.925781 526.003906 373.355469 530.578125 367.722656 530.578125 Z M 367.722656 530.578125 " style=" stroke:none;fill-rule:nonzero;fill:rgb(94.901961%,64.313725%,43.529412%);fill-opacity:1;" />
<path d="M 367.722656 234.679688 C 379 234.679688 388.128906 225.546875 388.128906 214.269531 L 388.128906 130.5 C 336.738281 184.203125 264.792969 216.464844 210.378906 234.679688 Z M 367.722656 234.679688 " style=" stroke:none;fill-rule:nonzero;fill:rgb(96.078431%,67.058824%,46.27451%);fill-opacity:1;" />
</g>
</svg>