<svg xmlns="http://www.w3.org/2000/svg" height="591pt" version="1.1" viewBox="1 1 591.60003 591" width="591pt">
<g id="surface1">
<path d="M 61.242188 102.367188 L 530.757812 102.367188 L 530.757812 224.851562 L 61.242188 224.851562 C 27.414062 224.851562 0 197.4375 0 163.609375 C 0 129.785156 27.414062 102.367188 61.242188 102.367188 Z M 61.242188 102.367188 " style=" stroke:none;fill-rule:nonzero;fill:rgb(100%,63.529412%,18.823529%);fill-opacity:1;" />
<path d="M 61.242188 102.367188 C 27.457031 102.328125 0.0429688 129.683594 0 163.46875 C -0.0117188 174.265625 2.839844 184.882812 8.257812 194.230469 C 19.179688 175.289062 39.378906 163.609375 61.242188 163.609375 L 530.757812 163.609375 L 530.757812 102.367188 Z M 61.242188 102.367188 " style=" stroke:none;fill-rule:nonzero;fill:rgb(99.215686%,71.372549%,18.431373%);fill-opacity:1;" />
<path d="M 530.757812 275.886719 L 561.378906 275.886719 C 578.292969 275.886719 592 289.59375 592 306.507812 C 592 323.417969 578.292969 337.128906 561.378906 337.128906 L 530.757812 337.128906 Z M 530.757812 275.886719 " style=" stroke:none;fill-rule:nonzero;fill:rgb(32.941176%,19.607843%,12.941176%);fill-opacity:1;" />
<path d="M 469.515625 255.472656 L 81.65625 459.609375 L 10.207031 194.230469 L 306.207031 0.300781 Z M 469.515625 255.472656 " style=" stroke:none;fill-rule:nonzero;fill:rgb(41.960784%,58.823529%,16.470588%);fill-opacity:1;" />
<path d="M 489.929688 306.507812 L 81.65625 469.816406 L 10.207031 194.230469 L 418.484375 41.128906 Z M 489.929688 306.507812 " style=" stroke:none;fill-rule:nonzero;fill:rgb(50.196078%,65.882353%,20.392157%);fill-opacity:1;" />
<path d="M 71.132812 225.871094 L 357.242188 118.597656 L 357.832031 120.027344 C 363.039062 132.511719 377.390625 138.410156 389.875 133.203125 C 390.035156 133.132812 390.199219 133.0625 390.363281 132.988281 L 428.863281 275.96875 L 116.53125 400.910156 Z M 71.132812 225.871094 " style=" stroke:none;fill-rule:nonzero;fill:rgb(41.960784%,58.823529%,16.470588%);fill-opacity:1;" />
<path d="M 530.757812 592.300781 L 61.242188 592.300781 C 27.414062 592.300781 0 564.882812 0 531.058594 L 0 163.609375 C 0 197.4375 27.414062 224.851562 61.242188 224.851562 L 530.757812 224.851562 Z M 530.757812 592.300781 " style=" stroke:none;fill-rule:nonzero;fill:rgb(45.882353%,27.45098%,18.039216%);fill-opacity:1;" />
<path d="M 43.277344 589.613281 C 49.09375 591.390625 55.160156 592.300781 61.242188 592.300781 L 530.757812 592.300781 L 530.757812 224.851562 L 481.835938 224.851562 C 340.738281 421.703125 147.519531 537.5 43.277344 589.613281 Z M 43.277344 589.613281 " style=" stroke:none;fill-rule:nonzero;fill:rgb(41.960784%,25.098039%,16.470588%);fill-opacity:1;" />
<path d="M 489.929688 286.09375 L 454.941406 286.09375 L 454.941406 265.679688 L 489.929688 265.679688 Z M 414.113281 286.09375 L 373.285156 286.09375 L 373.285156 265.679688 L 414.113281 265.679688 Z M 332.457031 286.09375 L 291.632812 286.09375 L 291.632812 265.679688 L 332.457031 265.679688 Z M 250.804688 286.09375 L 209.976562 286.09375 L 209.976562 265.679688 L 250.804688 265.679688 Z M 169.148438 286.09375 L 128.320312 286.09375 L 128.320312 265.679688 L 169.148438 265.679688 Z M 87.492188 286.09375 L 61.242188 286.09375 C 55.578125 286.074219 49.933594 285.386719 44.421875 284.050781 L 49.199219 264.25 C 53.148438 265.1875 57.191406 265.667969 61.242188 265.679688 L 87.472656 265.679688 Z M 87.492188 286.09375 " style=" stroke:none;fill-rule:nonzero;fill:rgb(36.078431%,21.568627%,14.117647%);fill-opacity:1;" />
<path d="M 489.929688 551.472656 L 454.941406 551.472656 L 454.941406 531.058594 L 489.929688 531.058594 Z M 414.113281 551.472656 L 373.285156 551.472656 L 373.285156 531.058594 L 414.113281 531.058594 Z M 332.457031 551.472656 L 291.632812 551.472656 L 291.632812 531.058594 L 332.457031 531.058594 Z M 250.804688 551.472656 L 209.976562 551.472656 L 209.976562 531.058594 L 250.804688 531.058594 Z M 169.148438 551.472656 L 128.320312 551.472656 L 128.320312 531.058594 L 169.148438 531.058594 Z M 87.492188 551.472656 L 61.242188 551.472656 C 55.578125 551.453125 49.933594 550.769531 44.421875 549.429688 L 49.199219 529.628906 C 53.148438 530.566406 57.191406 531.046875 61.242188 531.058594 L 87.472656 531.058594 Z M 87.492188 551.472656 " style=" stroke:none;fill-rule:nonzero;fill:rgb(36.078431%,21.568627%,14.117647%);fill-opacity:1;" />
<path d="M 561.378906 459.609375 L 408.277344 459.609375 C 374.449219 459.609375 347.035156 432.195312 347.035156 398.367188 C 347.035156 364.542969 374.449219 337.128906 408.277344 337.128906 L 561.378906 337.128906 C 578.292969 337.128906 592 323.417969 592 306.507812 L 592 428.988281 C 592 445.902344 578.292969 459.609375 561.378906 459.609375 Z M 561.378906 459.609375 " style=" stroke:none;fill-rule:nonzero;fill:rgb(52.941176%,32.54902%,22.352941%);fill-opacity:1;" />
<path d="M 428.691406 398.367188 C 428.691406 409.644531 419.550781 418.78125 408.277344 418.78125 C 397 418.78125 387.863281 409.644531 387.863281 398.367188 C 387.863281 387.09375 397 377.957031 408.277344 377.957031 C 419.550781 377.957031 428.691406 387.09375 428.691406 398.367188 Z M 428.691406 398.367188 " style=" stroke:none;fill-rule:nonzero;fill:rgb(36.078431%,21.568627%,14.117647%);fill-opacity:1;" />
</g>
</svg>